# xmcd CD database file
#
# Track frame offsets:
#	187
#	19770
#	40505
#
# Disc length: 800 seconds
#
# Revision: 0
# Processed by: cddbd v1.5PL3 Copyright (c) Steve Scherf et al.
# Submitted via: CDex 1.40Release
#
DISCID=16031e03
DTITLE=沢田聖子 - 笑顔が好きだから
DYEAR=1900
DGENRE=Misc
TTITLE0=笑顔が好きだから
TTITLE1=夢を忘れない
TTITLE2=笑顔が好きだから（カラオケ）
EXTD=
EXTT0=
EXTT1=
EXTT2=
PLAYORDER=
